<?xml version="1.0" encoding="UTF-8" standalone="no"?>
<!DOCTYPE svg PUBLIC "-//W3C//DTD SVG 1.1//EN" "http://www.w3.org/Graphics/SVG/1.1/DTD/svg11.dtd">
<svg width="100%" height="100%" viewBox="0 0 201 201" version="1.1" xmlns="http://www.w3.org/2000/svg" xmlns:xlink="http://www.w3.org/1999/xlink" xml:space="preserve" xmlns:serif="http://www.serif.com/" style="fill-rule:evenodd;clip-rule:evenodd;stroke-linejoin:round;stroke-miterlimit:2;">
    <g transform="matrix(1,0,0,1,-1546,-297)">
        <g transform="matrix(1,0,0,1,2197.02,13.5657)">
            <g transform="matrix(5.47945,0,0,5.47945,-2348.66,-2254.63)">
                <g transform="matrix(0.658295,0,0,0.658295,-1283.7,164.548)">
                    <path d="M2448.43,453.828C2433.13,453.828 2420.71,466.25 2420.71,481.551C2420.71,496.851 2433.13,509.274 2448.43,509.274C2463.73,509.274 2476.16,496.851 2476.16,481.551C2476.16,466.25 2463.73,453.828 2448.43,453.828ZM2448.43,456.106C2462.48,456.106 2473.88,467.507 2473.88,481.551C2473.88,495.594 2462.48,506.995 2448.43,506.995C2434.39,506.995 2422.99,495.594 2422.99,481.551C2422.99,467.507 2434.39,456.106 2448.43,456.106Z" style="fill:white;"/>
                </g>
                <g transform="matrix(0.0426768,0,0,0.0426768,323.951,473.357)">
                    <path d="M157.953,63.762L193.008,63.762L193.008,2.703C186.961,1.871 166.16,0 141.938,0C91.391,0 56.77,31.793 56.77,90.223L56.77,144L0.992,144L0.992,212.258L56.77,212.258L56.77,384L125.152,384L125.152,212.273L178.672,212.273L187.168,144.016L125.137,144.016L125.137,96.992C125.152,77.266 130.465,63.762 157.953,63.762Z" style="fill:white;fill-rule:nonzero;"/>
                </g>
            </g>
        </g>
    </g>
</svg>
