<?xml version="1.0" encoding="UTF-8" standalone="no"?>
<!DOCTYPE svg PUBLIC "-//W3C//DTD SVG 1.1//EN" "http://www.w3.org/Graphics/SVG/1.1/DTD/svg11.dtd">
<svg width="100%" height="100%" viewBox="0 0 201 201" version="1.1" xmlns="http://www.w3.org/2000/svg" xmlns:xlink="http://www.w3.org/1999/xlink" xml:space="preserve" xmlns:serif="http://www.serif.com/" style="fill-rule:evenodd;clip-rule:evenodd;stroke-linejoin:round;stroke-miterlimit:2;">
    <g transform="matrix(1,0,0,1,-1297,-298)">
        <g transform="matrix(1,0,0,1,2197.02,13.5657)">
            <g transform="matrix(5.47945,0,0,5.47945,-2588.58,-2253.29)">
                <g transform="matrix(0.658295,0,0,0.658295,-1285.2,164.548)">
                    <path d="M2448.43,453.828C2433.13,453.828 2420.71,466.25 2420.71,481.551C2420.71,496.851 2433.13,509.274 2448.43,509.274C2463.73,509.274 2476.16,496.851 2476.16,481.551C2476.16,466.25 2463.73,453.828 2448.43,453.828ZM2448.43,456.106C2462.48,456.106 2473.88,467.507 2473.88,481.551C2473.88,495.594 2462.48,506.995 2448.43,506.995C2434.39,506.995 2422.99,495.594 2422.99,481.551C2422.99,467.507 2434.39,456.106 2448.43,456.106Z" style="fill:white;"/>
                </g>
                <g transform="matrix(0.00768182,0,0,0.00768182,318.396,473.357)">
                    <path d="M1466.67,0L666.667,0C298.533,0 0,298.533 0,666.667L0,1466.67C0,1834.8 298.533,2133.33 666.667,2133.33L1466.67,2133.33C1834.8,2133.33 2133.33,1834.8 2133.33,1466.67L2133.33,666.667C2133.33,298.533 1834.8,0 1466.67,0ZM1933.33,1466.67C1933.33,1724 1724,1933.33 1466.67,1933.33L666.667,1933.33C409.333,1933.33 200,1724 200,1466.67L200,666.667C200,409.333 409.333,200 666.667,200L1466.67,200C1724,200 1933.33,409.333 1933.33,666.667L1933.33,1466.67ZM1066.67,533.333C772.133,533.333 533.333,772.133 533.333,1066.67C533.333,1361.2 772.133,1600 1066.67,1600C1361.2,1600 1600,1361.2 1600,1066.67C1600,772.133 1361.2,533.333 1066.67,533.333ZM1066.67,1400C882.933,1400 733.333,1250.4 733.333,1066.67C733.333,882.8 882.933,733.333 1066.67,733.333C1250.4,733.333 1400,882.8 1400,1066.67C1400,1250.4 1250.4,1400 1066.67,1400ZM1640,422.267C1679.25,422.267 1711.07,454.083 1711.07,493.333C1711.07,532.583 1679.25,564.4 1640,564.4C1600.75,564.4 1568.93,532.583 1568.93,493.333C1568.93,454.083 1600.75,422.267 1640,422.267Z" style="fill:white;fill-rule:nonzero;"/>
                </g>
            </g>
        </g>
    </g>
</svg>
