<?xml version="1.0" encoding="UTF-8" standalone="no"?>
<!DOCTYPE svg PUBLIC "-//W3C//DTD SVG 1.1//EN" "http://www.w3.org/Graphics/SVG/1.1/DTD/svg11.dtd">
<svg width="100%" height="100%" viewBox="0 0 11 12" version="1.1" xmlns="http://www.w3.org/2000/svg" xmlns:xlink="http://www.w3.org/1999/xlink" xml:space="preserve" xmlns:serif="http://www.serif.com/" style="fill-rule:evenodd;clip-rule:evenodd;stroke-linejoin:round;stroke-miterlimit:2;">
    <g transform="matrix(1,0,0,1,-3679.66,-3465.6)">
        <g transform="matrix(0.915249,0,0,4.55829,3491.93,655.221)">
            <g transform="matrix(0.0332082,0,0,0.0066678,205.082,616.542)">
                <path d="M125.391,384C97.441,384 71.078,375.082 49.156,358.207C45.059,355.059 41.121,351.613 37.449,347.984C11.859,322.695 -1.02,289.012 1.191,253.141C2.863,226.027 13.785,199.891 31.957,179.543C56.023,152.594 89.203,137.754 125.398,137.754C131.617,137.754 137.895,138.219 144.074,139.133L153.676,140.559L153.676,225.75L138.891,220.867C134.586,219.441 130.109,218.723 125.578,218.723C114.137,218.723 103.418,223.207 95.398,231.344C87.422,239.445 83.121,250.156 83.289,261.516C83.504,276.164 91.223,289.441 103.926,297.047C109.776,300.539 116.438,302.586 123.203,302.961C128.543,303.254 133.816,302.559 138.887,300.887C156.219,295.164 167.863,279.082 167.863,260.879L167.941,172.531L167.941,0L249.359,0L249.457,11.145C249.504,16.191 250.02,21.238 250.996,26.129C254.82,45.359 265.605,62.496 281.363,74.379C295.352,84.93 312.047,90.504 329.625,90.504C330.039,90.504 330.039,90.504 333.797,90.766L344.258,91.5L344.258,171.75L340.508,171.742L329.191,171.742C307.508,171.742 287.191,167.609 267.051,159.113C261.051,156.578 255.211,153.684 249.57,150.449L249.824,261.309C249.691,294.098 236.73,324.855 213.336,347.977C194.355,366.734 170.398,378.719 144.059,382.621C137.918,383.535 131.641,384 125.391,384ZM125.391,160.254C95.699,160.254 68.477,172.426 48.734,194.527C33.914,211.125 25.004,232.434 23.641,254.52C21.84,283.809 32.355,311.316 53.258,331.973C56.281,334.957 59.512,337.785 62.871,340.371C80.828,354.195 102.449,361.5 125.391,361.5C130.539,361.5 135.703,361.117 140.766,360.367C162.344,357.172 181.973,347.355 197.527,331.98C216.637,313.094 227.219,287.992 227.332,261.293L226.98,106.5L245.152,120.516C254.535,127.754 264.855,133.77 275.812,138.398C290.789,144.719 305.887,148.23 321.75,149.062L321.75,112.727C302.145,111.254 283.629,104.289 267.809,92.355C247.637,77.145 233.828,55.184 228.922,30.531C228.398,27.887 227.969,25.207 227.656,22.508L190.434,22.508L190.434,172.539L190.359,260.887C190.359,288.809 172.508,313.469 145.934,322.246C138.188,324.801 130.125,325.867 121.965,325.426C111.57,324.855 101.34,321.711 92.371,316.352C72.922,304.719 61.109,284.34 60.781,261.848C60.523,244.418 67.117,227.977 79.359,215.551C91.637,203.086 108.047,196.223 125.566,196.223C127.441,196.223 129.301,196.305 131.16,196.461L131.16,160.41C129.238,160.305 127.312,160.254 125.391,160.254Z" style="fill:white;fill-rule:nonzero;"/>
            </g>
        </g>
    </g>
</svg>
