<?xml version="1.0" encoding="UTF-8" standalone="no"?>
<!DOCTYPE svg PUBLIC "-//W3C//DTD SVG 1.1//EN" "http://www.w3.org/Graphics/SVG/1.1/DTD/svg11.dtd">
<svg width="100%" height="100%" viewBox="0 0 201 201" version="1.1" xmlns="http://www.w3.org/2000/svg" xmlns:xlink="http://www.w3.org/1999/xlink" xml:space="preserve" xmlns:serif="http://www.serif.com/" style="fill-rule:evenodd;clip-rule:evenodd;stroke-linejoin:round;stroke-miterlimit:2;">
    <g transform="matrix(1,0,0,1,-1794,-298)">
        <g transform="matrix(1,0,0,1,2197.02,13.5657)">
            <g transform="matrix(5.47945,0,0,5.47945,-2100.52,-2253.29)">
                <g transform="matrix(0.658295,0,0,0.658295,-1283.7,164.548)">
                    <path d="M2448.43,453.828C2433.13,453.828 2420.71,466.25 2420.71,481.551C2420.71,496.851 2433.13,509.274 2448.43,509.274C2463.73,509.274 2476.16,496.851 2476.16,481.551C2476.16,466.25 2463.73,453.828 2448.43,453.828ZM2448.43,456.106C2462.48,456.106 2473.88,467.507 2473.88,481.551C2473.88,495.594 2462.48,506.995 2448.43,506.995C2434.39,506.995 2422.99,495.594 2422.99,481.551C2422.99,467.507 2434.39,456.106 2448.43,456.106Z" style="fill:white;"/>
                </g>
                <g transform="matrix(0.0426768,0,0,0.0426768,319.35,474.842)">
                    <path d="M60,316.276L349.602,316.276C384.38,316.276 412.677,287.979 412.677,253.201L412.677,61.201C412.677,26.419 384.38,-1.874 349.602,-1.874C349.602,-1.874 60,-1.874 60,-1.874C25.218,-1.874 -3.075,26.419 -3.075,61.201C-3.075,61.201 -3.075,253.201 -3.075,253.201C-3.075,287.979 25.218,316.276 60,316.276ZM27.075,61.201C27.075,43.045 41.844,28.276 60,28.276C60,28.276 349.602,28.276 349.602,28.276C367.753,28.276 382.527,43.045 382.527,61.201C382.527,61.201 382.527,253.201 382.527,253.201C382.527,271.352 367.753,286.126 349.602,286.126C349.602,286.126 60,286.126 60,286.126C41.844,286.126 27.075,271.352 27.075,253.201L27.075,61.201ZM141.726,71.579L141.726,245.235L295.453,156.985L141.726,71.579ZM171.876,193.162L234.144,157.417L171.876,122.822L171.876,193.162Z" style="fill:white;"/>
                </g>
            </g>
        </g>
    </g>
</svg>
