<?xml version="1.0" encoding="UTF-8" standalone="no"?>
<!DOCTYPE svg PUBLIC "-//W3C//DTD SVG 1.1//EN" "http://www.w3.org/Graphics/SVG/1.1/DTD/svg11.dtd">
<svg width="100%" height="100%" viewBox="0 0 1025 189" version="1.1" xmlns="http://www.w3.org/2000/svg" xmlns:xlink="http://www.w3.org/1999/xlink" xml:space="preserve" xmlns:serif="http://www.serif.com/" style="fill-rule:evenodd;clip-rule:evenodd;stroke-linejoin:round;stroke-miterlimit:2;">
    <g transform="matrix(1,0,0,1,-2169,-831)">
        <g transform="matrix(1,0,0,1.90955,2169.67,1.68861)">
            <g id="Line-SVG-copy" serif:id="Line SVG copy" transform="matrix(0.997989,0,0,0.522532,-2164.28,15.4933)">
                <path d="M2170.31,989.746C2186.01,962.854 2211.13,919.823 2239.16,889.378C2257.7,869.226 2277.5,854.566 2296.69,853.966C2306.22,853.668 2316.22,858.777 2326.59,867.025C2342.36,879.567 2358.9,899.372 2375.7,918.966C2392.57,938.651 2409.7,958.122 2426.53,969.893C2437.9,977.839 2449.14,982.28 2460.09,981.04C2473.17,979.558 2486.76,969.218 2500.43,954.3C2520.74,932.144 2541.3,899.905 2560.87,872.228C2573.86,853.852 2586.41,837.49 2598.16,827.476C2605.85,820.925 2613.17,817.092 2620.05,817.328C2624.12,817.469 2628.11,819.155 2632,822.06C2637.99,826.522 2643.76,833.834 2649.34,842.955C2663.41,865.963 2676.23,900.427 2687.95,930.161C2697.1,953.406 2705.6,973.769 2713.47,983.61C2717.03,988.065 2720.54,990.382 2723.87,990.116C2727.22,989.848 2730.12,987.078 2732.58,982.241C2737.97,971.605 2741.46,950.792 2744.66,926.987C2749.42,891.494 2753.59,849.317 2762.8,824.59C2766.65,814.236 2771.33,806.958 2777.42,804.722C2782.81,802.744 2789.17,803.905 2796.26,807.207C2807.16,812.285 2819.7,822.427 2832.96,834.508C2852.95,852.727 2874.53,875.353 2894.52,891.853C2907.94,902.938 2920.66,911.255 2931.69,913.706C2941.85,915.963 2952.54,913.776 2963.27,909.249C2979.19,902.538 2995.23,890.682 3009.86,880.84C3019.51,874.34 3028.54,868.72 3036.5,866.105C3041.66,864.41 3046.36,863.98 3050.46,865.48C3056.66,867.747 3060.72,875.115 3063.76,884.875C3068.45,899.896 3070.59,920.578 3073.47,937.947C3075.41,949.66 3077.71,959.879 3081.29,965.927C3083.84,970.225 3087.05,972.474 3091.16,971.965C3094.11,971.599 3097.49,970.093 3101.2,967.622C3106.62,964.008 3112.77,958.319 3119.32,951.243C3144.61,923.899 3175.89,875.771 3194.3,847.459L3194.7,846.83L3193.45,846.013L3193.04,846.642C3174.67,874.897 3143.46,922.935 3118.22,950.225C3111.77,957.198 3105.71,962.812 3100.37,966.374C3096.89,968.689 3093.74,970.134 3090.97,970.477C3087.45,970.913 3084.77,968.853 3082.58,965.162C3079.07,959.229 3076.86,949.193 3074.95,937.702C3072.06,920.266 3069.9,899.507 3065.2,884.429C3061.98,874.123 3057.52,866.465 3050.98,864.072C3046.59,862.466 3041.56,862.866 3036.03,864.68C3027.97,867.331 3018.81,873.008 3009.02,879.595C2994.47,889.385 2978.52,901.191 2962.69,907.867C2952.26,912.264 2941.89,914.434 2932.02,912.241C2921.16,909.831 2908.68,901.602 2895.47,890.697C2875.51,874.211 2853.94,851.602 2833.97,833.399C2820.58,821.199 2807.9,810.976 2796.89,805.848C2789.38,802.346 2782.61,801.217 2776.9,803.314C2770.51,805.662 2765.44,813.192 2761.39,824.067C2752.16,848.873 2747.95,891.181 2743.17,926.788C2740,950.382 2736.59,971.02 2731.24,981.563C2729.09,985.803 2726.68,988.386 2723.75,988.621C2720.79,988.857 2717.8,986.624 2714.64,982.674C2706.83,972.906 2698.43,952.682 2689.34,929.611C2677.6,899.797 2664.73,865.243 2650.62,842.172C2644.92,832.861 2639.01,825.412 2632.9,820.857C2628.73,817.751 2624.46,815.979 2620.1,815.829C2612.91,815.582 2605.22,819.49 2597.19,826.334C2585.36,836.413 2572.72,852.868 2559.65,871.362C2540.11,898.988 2519.6,931.171 2499.33,953.286C2485.95,967.882 2472.72,978.1 2459.92,979.549C2449.3,980.752 2438.42,976.371 2427.39,968.663C2410.65,956.954 2393.62,937.572 2376.84,917.99C2359.98,898.318 2343.36,878.443 2327.53,865.851C2316.83,857.343 2306.47,852.16 2296.64,852.467C2277.12,853.077 2256.92,867.866 2238.05,888.362C2209.95,918.888 2184.76,962.026 2169.02,988.99L2168.64,989.638L2169.94,990.394L2170.31,989.746Z" style="fill:url(#_Linear1);"/>
            </g>
        </g>
    </g>
    <defs>
        <linearGradient id="_Linear1" x1="0" y1="0" x2="1" y2="0" gradientUnits="userSpaceOnUse" gradientTransform="matrix(1024,0,0,1024,2169.67,906.197)"><stop offset="0" style="stop-color:black;stop-opacity:0.2"/><stop offset="1" style="stop-color:rgb(77,77,77);stop-opacity:0.2"/></linearGradient>
    </defs>
</svg>
