<?xml version="1.0" encoding="UTF-8" standalone="no"?>
<!DOCTYPE svg PUBLIC "-//W3C//DTD SVG 1.1//EN" "http://www.w3.org/Graphics/SVG/1.1/DTD/svg11.dtd">
<svg width="21" height="100%" viewBox="0 0 21 31" version="1.1" xmlns="http://www.w3.org/2000/svg" xmlns:xlink="http://www.w3.org/1999/xlink" xml:space="preserve" xmlns:serif="http://www.serif.com/" style="fill-rule:evenodd;clip-rule:evenodd;stroke-linejoin:round;stroke-miterlimit:2;">
    <g transform="matrix(1,0,0,1,-3248.42,-2676.44)">
        <g transform="matrix(1,0,0,1.22505,650.385,-560.908)">
            <g transform="matrix(2.12875,0,0,1.73769,-2945.48,-2048.89)">
                <path d="M2609.01,2714.41C2609.01,2714.41 2604.12,2707.65 2604.12,2704.76C2604.12,2702.06 2606.31,2699.86 2609.01,2699.86C2611.72,2699.86 2613.91,2702.06 2613.91,2704.76C2613.91,2707.65 2609.01,2714.41 2609.01,2714.41ZM2609.01,2701.54C2610.63,2701.54 2611.95,2702.86 2611.95,2704.47C2611.95,2706.09 2610.63,2707.4 2609.01,2707.4C2607.4,2707.4 2606.09,2706.09 2606.09,2704.47C2606.09,2702.86 2607.4,2701.54 2609.01,2701.54Z" style="fill:rgb(6,174,170);"/>
            </g>
        </g>
    </g>
</svg>
