<svg xmlns="http://www.w3.org/2000/svg" xmlns:xlink="http://www.w3.org/1999/xlink"><defs><symbol viewBox="0 0 17 26" fill-rule="evenodd" stroke-linejoin="round" stroke-miterlimit="2" id="arrow"><path d="M9.357 12.763L.002 3.407 3.407.003l12.76 12.76-12.76 12.763-3.405-3.404 9.355-9.36z" /></symbol><symbol viewBox="0 0 134 134" fill-rule="evenodd" stroke-linejoin="round" stroke-miterlimit="2" id="exit-menu"><path d="M66.922 53.6L120.209.269 133.56 13.6 80.217 66.934l53.344 53.333-13.35 13.333-53.288-53.333L13.578 133.6.228 120.267l53.344-53.333L.228 13.6 13.578.268 66.922 53.6z" fill="#fff" fill-rule="nonzero" /></symbol><symbol viewBox="0 0 201 201" fill-rule="evenodd" stroke-linejoin="round" stroke-miterlimit="2" id="facebook"><path d="M114.37 70.582h8.197V56.304c-1.414-.195-6.278-.632-11.942-.632-11.82 0-19.916 7.434-19.916 21.098v12.575H77.665v15.962H90.71v40.161h15.99v-40.157h12.516l1.987-15.962h-14.506V78.353c.004-4.613 1.246-7.77 7.674-7.77z" fill-rule="nonzero" /></symbol><symbol viewBox="0 0 201 201" fill-rule="evenodd" stroke-linejoin="round" stroke-miterlimit="2" id="instagram"><path d="M117.81 56.012H84.136c-15.495 0-28.061 12.566-28.061 28.061v33.674c0 15.495 12.566 28.061 28.061 28.061h33.674c15.496 0 28.061-12.566 28.061-28.061V84.073c0-15.495-12.565-28.061-28.06-28.061zm19.643 61.735c0 10.832-8.811 19.643-19.643 19.643H84.136c-10.831 0-19.643-8.811-19.643-19.643V84.073c0-10.832 8.812-19.643 19.643-19.643h33.674c10.832 0 19.643 8.811 19.643 19.643v33.674zm-36.48-39.286c-12.397 0-22.449 10.051-22.449 22.45 0 12.397 10.052 22.448 22.45 22.448 12.397 0 22.448-10.051 22.448-22.449 0-12.398-10.051-22.45-22.449-22.45zm0 36.48c-7.733 0-14.03-6.297-14.03-14.03 0-7.74 6.297-14.032 14.03-14.032 7.734 0 14.031 6.292 14.031 14.031 0 7.734-6.297 14.03-14.03 14.03zm24.133-41.155a2.991 2.991 0 110 5.983 2.991 2.991 0 010-5.983z" fill-rule="nonzero" /></symbol><symbol viewBox="0 0 201 134" fill-rule="evenodd" stroke-linejoin="round" stroke-miterlimit="2" id="menu"><path d="M.98.264v22.222h200V.264H.98zm0 77.777h200V55.82H.98v22.222zm0 55.556h200v-22.222H.98v22.222z" fill="#fff" fill-rule="nonzero" /></symbol><symbol viewBox="0 0 201 67" fill-rule="evenodd" stroke-linejoin="round" stroke-miterlimit="2" id="navigation"><path d="M100.956 54.309c34.023-17.376 60.812-34.333 89.812-51.422l4.554-2.684 5.492 8.91-4.554 2.679c-29.536 17.402-95.639 54.387-95.639 54.387L.83 9.212 6.188.229l94.768 54.08z" /></symbol><symbol viewBox="0 0 11 12" fill-rule="evenodd" stroke-linejoin="round" stroke-miterlimit="2" id="tiktok"><path d="M3.782 11.67a3.765 3.765 0 01-2.673-1.095 3.717 3.717 0 01-.167-5.12 3.76 3.76 0 012.84-1.27c.19 0 .38.014.568.042l.292.043v2.59l-.45-.149a1.284 1.284 0 00-1.321.319 1.275 1.275 0 00.26 1.997 1.287 1.287 0 001.061.116 1.28 1.28 0 00.881-1.216l.002-2.685V-.002H7.55l.003.339a2.43 2.43 0 00.97 1.922c.425.32.932.49 1.467.49l.126.008.318.022v2.44H9.976a4.768 4.768 0 01-1.888-.385 4.907 4.907 0 01-.532-.263l.008 3.37a3.7 3.7 0 01-1.109 2.634 3.761 3.761 0 01-2.673 1.094zm0-6.801c-.902 0-1.73.37-2.33 1.042a3.03 3.03 0 00.43 4.432c.546.42 1.203.643 1.9.643.157 0 .314-.012.468-.035a3.08 3.08 0 001.725-.863A3.02 3.02 0 006.88 7.94L6.87 3.235l.552.426a4.205 4.205 0 002.328.868V3.424a3.091 3.091 0 01-1.64-.619A3.113 3.113 0 016.89.682H5.76v4.56l-.003 2.686a1.962 1.962 0 01-2.079 1.961 1.972 1.972 0 01-.9-.276 1.954 1.954 0 01-.96-1.656 1.95 1.95 0 01.565-1.407 1.957 1.957 0 011.575-.58V4.873a3.216 3.216 0 00-.176-.005z" fill="#fff" fill-rule="nonzero" /></symbol><symbol viewBox="0 0 201 201" fill-rule="evenodd" stroke-linejoin="round" stroke-miterlimit="2" id="you-tube"><path d="M66.393 138.108h67.722c8.133 0 14.75-6.617 14.75-14.75V78.46c0-8.133-6.617-14.75-14.75-14.75H66.393c-8.134 0-14.75 6.617-14.75 14.75v44.899c0 8.132 6.616 14.75 14.75 14.75zm-7.7-59.648c0-4.245 3.454-7.7 7.7-7.7h67.722c4.245 0 7.7 3.455 7.7 7.7v44.899c0 4.244-3.455 7.699-7.7 7.699H66.393c-4.246 0-7.7-3.455-7.7-7.7V78.46zm26.811 2.427v40.609l35.949-20.637-35.949-19.972zm7.05 28.432l14.562-8.36-14.561-8.089v16.449z" /></symbol></defs></svg>